<?xml version="1.0" encoding="UTF-8" standalone="no"?>
<!-- Generator: Adobe Illustrator 23.0.1, SVG Export Plug-In . SVG Version: 6.00 Build 0)  -->

<svg
   xmlns:dc="http://purl.org/dc/elements/1.1/"
   xmlns:cc="http://creativecommons.org/ns#"
   xmlns:rdf="http://www.w3.org/1999/02/22-rdf-syntax-ns#"
   xmlns:svg="http://www.w3.org/2000/svg"
   xmlns="http://www.w3.org/2000/svg"
   xmlns:sodipodi="http://sodipodi.sourceforge.net/DTD/sodipodi-0.dtd"
   xmlns:inkscape="http://www.inkscape.org/namespaces/inkscape"
   version="1.1"
   id="Layer_1"
   x="0px"
   y="0px"
   viewBox="0 0 132.875 170"
   xml:space="preserve"
   sodipodi:docname="logo.svg"
   inkscape:version="0.92.4 (5da689c313, 2019-01-14)"
   width="132.875"
   height="170"><metadata
   id="metadata79"><rdf:RDF><cc:Work
       rdf:about=""><dc:format>image/svg+xml</dc:format><dc:type
         rdf:resource="http://purl.org/dc/dcmitype/StillImage" /><dc:title></dc:title></cc:Work></rdf:RDF></metadata><defs
   id="defs77" /><sodipodi:namedview
   pagecolor="#ffffff"
   bordercolor="#666666"
   borderopacity="1"
   objecttolerance="10"
   gridtolerance="10"
   guidetolerance="10"
   inkscape:pageopacity="0"
   inkscape:pageshadow="2"
   inkscape:window-width="2560"
   inkscape:window-height="1377"
   id="namedview75"
   showgrid="false"
   inkscape:zoom="3.9265224"
   inkscape:cx="8.4557483"
   inkscape:cy="88.365756"
   inkscape:window-x="-8"
   inkscape:window-y="-8"
   inkscape:window-maximized="1"
   inkscape:current-layer="Layer_1" />
<style
   type="text/css"
   id="style2">
	.st0{display:none;opacity:0.2;fill:#9BD0EE;}
	.st1{opacity:0.26;fill:#9BD0EE;}
	.st2{display:none;fill:#B9DEF1;}
	.st3{display:none;}
	.st4{display:inline;fill:#AD672E;}
	.st5{fill:#C38323;}
	.st6{opacity:0.09;}
	.st7{fill:#201F37;}
	.st8{display:none;fill:#58BD9C;}
	.st9{fill:#58BD9C;}
	.st10{opacity:0.07;fill:#201F37;}
	.st11{fill:#53244A;}
	.st12{display:none;fill:#5A2F29;}
	.st13{fill:#39002E;}
	.st14{opacity:0.2;fill:#9BD0EE;}
	.st15{display:none;fill:#F3D7D5;}
	.st16{display:inline;fill:#393434;}
	.st17{display:none;opacity:0.2;fill:#CB6258;}
	.st18{opacity:0.2;fill:#CB6258;}
</style>


<g
   id="g882"
   transform="translate(-21.622517,4.7020178)"><g
     transform="matrix(1.3051587,0,0,1.2691792,-23.550473,-25.747287)"
     inkscape:export-ydpi="45.869629"
     inkscape:export-xdpi="45.869629"
     inkscape:export-filename="C:\Users\clzolapc\Desktop\OpenSource\Snape_s_Potions_Warehouse\snapes-potions-warehouse-admin\src\assets\logo_h64.png"
     id="g42">
	<g
   id="g32">
		<path
   style="display:none;opacity:0.2;fill:#9bd0ee"
   inkscape:connector-curvature="0"
   id="path4"
   d="M 124.43,126.35 C 112.08,150.38 82.58,159.84 58.55,147.49 34.52,135.14 25.05,105.64 37.41,81.61 47.02,62.91 67.01,53.03 86.72,55.39 l 18.39,-24.84 c 0.92,1.19 2.1,2.42 3.49,3.65 2.71,2.4 1.78,2.51 5.83,4.59 4.05,2.08 3.61,1.27 7.13,2.08 1.81,0.42 3.49,0.66 5,0.72 L 117.06,71 c 13.39,14.65 16.98,36.65 7.37,55.35 z"
   class="st0" />
		<path
   style="display:none;opacity:0.2;fill:#9bd0ee"
   inkscape:connector-curvature="0"
   id="path6"
   d="M 121.78,125.34 C 110.09,148.08 82.25,157.08 59.6,145.43 36.96,133.79 28.07,105.92 39.76,83.18 48.25,66.67 65.25,57.39 82.61,58.03 c 1.94,0.06 3.88,0.26 5.83,0.58 l 27.31,-32.9 c 3.03,-1.15 6.47,-1.32 10.69,1.54 4.31,2.92 6.25,4.35 6.3,6.3 l -19.31,37.9 c 1.4,1.39 2.69,2.86 3.86,4.4 10.63,13.75 12.98,32.97 4.49,49.49 z"
   class="st0" />
		<path
   style="opacity:0.26000001;fill:#9bd0ee"
   inkscape:connector-curvature="0"
   id="path8"
   d="M 121.78,125.34 C 110.09,148.08 82.25,157.08 59.6,145.43 36.96,133.79 28.07,105.92 39.76,83.18 48.25,66.67 65.25,57.39 82.61,58.03 c 1.94,0.06 3.88,0.26 5.83,0.58 l 23.31,-27.9 c 1.46,-2.01 3.5,-2.16 8.14,0.22 4.63,2.38 8.81,5.67 8.85,7.63 l -15.31,32.9 c 1.4,1.39 2.69,2.86 3.86,4.4 10.63,13.74 12.98,32.96 4.49,49.48 z"
   class="st1" />
		<path
   style="display:none;fill:#b9def1"
   inkscape:connector-curvature="0"
   id="path10"
   d="m 126.01,26.09 c -5.02,-2.58 -9.87,-3.15 -10.84,-1.27 -0.41,0.81 -0.05,1.93 0.91,3.15 0.43,0.56 0.98,1.13 1.63,1.7 1.27,1.12 2.91,2.24 4.81,3.21 1.89,0.97 3.76,1.66 5.41,2.04 0.85,0.19 1.63,0.31 2.34,0.33 1.55,0.06 2.68,-0.29 3.09,-1.1 0.96,-1.87 -2.33,-5.48 -7.35,-8.06 z m -6.55,0.51 c -0.02,-0.19 0.01,-0.36 0.09,-0.51 0.54,-1.05 3.27,-0.74 6.09,0.72 2.82,1.45 4.67,3.48 4.13,4.54 -0.08,0.15 -0.2,0.27 -0.36,0.37 -0.96,0.57 -3.32,0.16 -5.73,-1.08 -2.42,-1.26 -4.13,-2.93 -4.22,-4.04 z"
   class="st2" />
		<g
   id="g24">
			<g
   style="display:none"
   id="g14"
   class="st3">
				<path
   style="display:inline;fill:#ad672e"
   inkscape:connector-curvature="0"
   id="path12"
   d="m 136.29,28.7 c -1.38,-0.33 -2.77,-0.7 -4.15,-1.1 -0.84,-0.25 -1.69,-0.51 -2.48,-0.93 -1.18,-0.63 -2.15,-1.56 -3.21,-2.38 -0.89,-0.69 -1.84,-1.3 -2.74,-1.98 -1.97,-1.49 -3.67,-3.32 -4.96,-5.33 0.12,-0.18 0.27,-0.33 0.5,-0.38 0.26,-0.06 0.55,0.04 0.82,0.13 5.14,1.8 10.03,4.58 14.25,8.1 0.97,0.81 1.99,1.8 2.09,2.92 0.03,0.34 -0.02,0.65 -0.12,0.95 z"
   class="st4" />
			</g>
			<g
   id="g18">
				<path
   style="fill:#c38323"
   inkscape:connector-curvature="0"
   id="path16"
   d="m 136.29,28.7 c -1.38,-0.33 -2.77,-0.7 -4.15,-1.1 -0.84,-0.25 -1.69,-0.51 -2.48,-0.93 -1.18,-0.63 -2.15,-1.56 -3.21,-2.38 -0.89,-0.69 -1.84,-1.3 -2.74,-1.98 -1.97,-1.49 -3.67,-3.32 -4.96,-5.33 0.12,-0.18 0.27,-0.33 0.5,-0.38 0.26,-0.06 0.55,0.04 0.82,0.13 5.14,1.8 10.03,4.58 14.25,8.1 0.97,0.81 1.99,1.8 2.09,2.92 0.03,0.34 -0.02,0.65 -0.12,0.95 z"
   class="st5" />
			</g>
			<g
   id="g22">
				<path
   style="fill:#c38323"
   inkscape:connector-curvature="0"
   id="path20"
   d="m 130.44,36.36 c -0.53,0.52 -1.08,1.02 -1.65,1.5 -0.27,0.23 -0.54,0.45 -0.81,0.66 -1.45,0.22 -4.64,-1.02 -7.94,-3.17 -3.1,-2.03 -5.42,-4.28 -6.01,-5.72 0.11,-0.45 0.23,-0.91 0.35,-1.36 0.19,-0.68 0.38,-1.35 0.59,-2.01 0.96,-3.1 2.17,-6.09 3.62,-8.97 0.05,-0.1 0.11,-0.2 0.17,-0.3 1.29,2.01 2.99,3.84 4.96,5.33 0.9,0.68 1.85,1.29 2.74,1.98 1.05,0.81 2.03,1.75 3.21,2.38 0.79,0.42 1.64,0.68 2.48,0.93 1.38,0.4 2.76,0.77 4.14,1.1 -0.13,0.38 -0.34,0.75 -0.55,1.09 -1.47,2.39 -3.26,4.59 -5.3,6.56 z"
   class="st5" />
			</g>
		</g>
		<g
   style="opacity:0.08999999"
   id="g30"
   class="st6">
			<g
   id="g28">
				<path
   style="fill:#201f37"
   inkscape:connector-curvature="0"
   id="path26"
   d="m 125.64,38.2 c -1.55,-0.51 -3.51,-1.48 -5.5,-2.78 -3.1,-2.03 -5.42,-4.29 -6.01,-5.72 0.11,-0.46 0.23,-0.91 0.35,-1.36 0.19,-0.68 0.38,-1.35 0.59,-2.01 0.96,-3.1 2.17,-6.09 3.62,-8.97 0.05,-0.1 0.11,-0.21 0.17,-0.3 v 0 c 0.47,-0.92 1.99,-0.05 2.62,0.21 1.53,0.63 4.89,2.24 5.01,2.31 12.28,7.51 0.25,-0.18 -5.23,0.53 -2.84,5.76 -1,13.13 4.38,18.09 z"
   class="st7" />
			</g>
		</g>
	</g>
	<g
   id="g40">
		<path
   style="display:none;fill:#58bd9c"
   inkscape:connector-curvature="0"
   id="path34"
   d="M 121.78,125.36 C 110.14,148.01 82.34,156.93 59.69,145.29 37.04,133.65 28.12,105.85 39.76,83.2 c 1.47,-2.85 3.2,-5.5 5.14,-7.9 1.65,2.24 3.05,4.7 5.16,6.5 3.77,3.22 9.64,4.2 11.82,8.64 1.97,4.01 0.2,9.66 3.51,12.65 3.2,2.88 8.16,0.79 12.46,0.52 5.24,-0.33 10.55,2.66 12.98,7.31 1.7,3.25 2.28,7.42 5.34,9.45 4.58,3.03 10.34,-0.99 15.6,-2.57 4.18,-1.25 8.78,-0.67 12.67,1.29 -0.72,2.12 -1.61,4.21 -2.66,6.27 z"
   class="st8" />
		<path
   style="fill:#58bd9c"
   inkscape:connector-curvature="0"
   id="path36"
   d="M 121.78,125.36 C 110.14,148.01 82.34,156.93 59.69,145.29 37.04,133.65 28.12,105.85 39.76,83.2 c 1.47,-2.85 3.2,-5.5 5.14,-7.9 1.65,2.24 3.05,4.7 5.16,6.5 3.77,3.22 2.54,7.53 4.73,11.97 1.97,4.01 7.29,6.33 10.61,9.31 3.2,2.88 8.16,0.79 12.46,0.52 5.24,-0.33 6.99,-4.39 12.2,-5.1 3.83,-0.52 20.34,3.45 23.41,5.48 4.58,3.03 5.71,12.07 9.6,14.02 -0.74,2.13 -0.24,5.3 -1.29,7.36 z"
   class="st9" />
		<path
   style="opacity:0.07000002;fill:#201f37"
   inkscape:connector-curvature="0"
   id="path38"
   d="M 82.22,150.37 C 74.65,150.62 66.9,149 59.68,145.29 37.03,133.65 28.11,105.85 39.75,83.2 c 1.47,-2.85 3.2,-5.5 5.14,-7.9 1.32,1.78 2.48,3.72 3.96,5.34 -0.59,0.95 -1.13,1.93 -1.65,2.93 -11.64,22.65 -2.72,50.45 19.93,62.09 4.87,2.49 9.97,4.04 15.09,4.71 z"
   class="st10" />
	</g>
</g><g
     transform="matrix(1.3051587,0,0,1.2691792,-23.550473,-25.747287)"
     inkscape:export-ydpi="45.869629"
     inkscape:export-xdpi="45.869629"
     inkscape:export-filename="C:\Users\clzolapc\Desktop\OpenSource\Snape_s_Potions_Warehouse\snapes-potions-warehouse-admin\src\assets\logo_h64.png"
     id="g70">
	<path
   style="fill:#53244a"
   inkscape:connector-curvature="0"
   id="path44"
   d="m 77.75,57.5 c 0,0 -0.57,0.49 -1.87,1.2 -1.3,0.71 -2.68,1.19 -3.61,0.73 0.82,0.65 1.59,0.55 1.71,0.45 -0.89,0.87 -1.18,1.87 -1.18,1.87 0,0 1.05,-1.33 1.67,-1.76 0.62,-0.43 3.68,-2.13 3.68,-2.13 z"
   class="st11" />
	<path
   style="display:none;fill:#5a2f29"
   inkscape:connector-curvature="0"
   id="path46"
   d="m 77.75,57.5 c 0,0 -0.57,0.49 -1.87,1.2 -1.3,0.71 -2.68,1.19 -3.61,0.73 0.82,0.65 1.59,0.55 1.71,0.45 -0.89,0.87 -1.18,1.87 -1.18,1.87 0,0 1.05,-1.33 1.67,-1.76 0.62,-0.43 3.68,-2.13 3.68,-2.13 z"
   class="st12" />
	<path
   style="fill:#39002e"
   inkscape:connector-curvature="0"
   id="path48"
   d="m 113.55,136.52 c -7.4,6.03 -17.02,7.17 -26.04,4.69 -4.9,-1.34 -9.44,-3.75 -14.21,-5.49 -3.24,-1.18 -6.61,-2.13 -10.03,-2.61 -1.83,-0.26 -4.74,-0.64 -6.23,0.78 -0.81,0.76 -0.91,2 -0.73,3.1 0.68,4.16 7.61,6.29 8.79,10.19 0.39,1.27 -11.63,-4.63 -15.82,-9.22 -4.27,-4.68 0.89,-11.92 6.66,-12.99 6,-1.11 12.43,0.82 17.99,2.92 2.79,1.05 6.07,2.11 9.53,2.9 10.03,2.28 21.59,2.29 27.32,-6.67 4.58,-7.17 2.3,-16.87 -5.8,-20.15 -2.72,-1.1 -5.55,-1.69 -8.42,-1.9 -4.79,-0.36 -9.68,0.33 -14.29,1.42 -7.95,1.88 -15.92,2.53 -23.87,0.18 C 51.43,101.6 31.75,93.18 44.9,75.28 55.97,60.21 70.91,65.1 76.95,67.57 c 1.56,0.64 3.1,1.28 4.66,1.88 0.01,0.01 0.03,0.02 0.05,0.02 4.49,1.75 9.14,3.26 14.58,3.73 9.67,0.82 16.69,-2.64 19.64,-6.68 3.59,-4.92 1.25,-11.91 -3.62,-15.58 -4.86,-3.66 -9.99,-1.42 -11.53,-0.46 -0.65,0.41 -1.26,1.01 -1.85,1.7 -1.27,1.47 -2.51,3.35 -4.16,4.73 -2.43,2.03 -9.18,3.15 -15.36,2.05 -6.18,-1.1 -3.45,-4.93 -1.98,-7.07 1.48,-2.14 2.85,-4.58 3.18,-5.35 1.52,-3.95 3.96,-4.02 5.36,-3.93 1.4,0.09 1.93,0.42 3.21,0.01 1.8,-0.96 7.47,-2.11 10.02,-2.6 0.86,-0.16 1.73,-0.26 2.6,-0.29 4.25,-0.14 8.57,0.21 12.54,2.27 15.95,8.7 15.62,26.78 3.82,35.25 -10.77,7.73 -26.95,7 -41.08,0.98 -2.22,-0.95 -4.36,-1.61 -6.38,-2 -6.79,-1.3 -12.27,0.5 -15.37,5.03 -4.03,5.87 2.01,12.76 11.19,13.31 5.63,0.34 12.15,-1.52 18.84,-2.81 0.03,-0.01 0.06,-0.01 0.09,-0.02 4.18,-0.8 8.43,-1.37 12.56,-1.04 0.99,0.07 1.98,0.19 2.96,0.35 9.38,1.49 18.41,7.06 21.61,16.38 3.48,10.14 -0.85,22.47 -8.98,29.09 z"
   class="st13" />
	<g
   id="g62">
		<path
   style="opacity:0.2;fill:#9bd0ee"
   inkscape:connector-curvature="0"
   id="path50"
   d="m 88.07,55.59 c 0,0 0.21,-1.74 1.83,-1.85 1.62,-0.11 2.97,-0.43 2.97,-0.43 0,0 -1.41,2.19 -2.89,2.1 -0.81,-0.05 -1.91,0.18 -1.91,0.18 z"
   class="st14" />
		<path
   style="display:none;fill:#f3d7d5"
   inkscape:connector-curvature="0"
   id="path52"
   d="m 88.07,55.59 c 0,0 0.43,-2.02 2.04,-2.13 1.62,-0.11 2.76,-0.14 2.76,-0.14 0,0 -1.16,2.62 -2.63,2.44 -1.47,-0.18 -2.17,-0.17 -2.17,-0.17 z"
   class="st15" />
		<g
   style="display:none"
   id="g56"
   class="st3">
			<path
   style="display:inline;fill:#393434"
   inkscape:connector-curvature="0"
   id="path54"
   d="m 88.07,55.59 c 0.43,-0.22 0.95,-0.26 1.43,-0.21 0.48,0.05 0.94,0.09 1.35,-0.12 0.84,-0.38 1.31,-1.3 2.02,-1.94 -0.28,0.39 -0.52,0.8 -0.81,1.19 -0.29,0.39 -0.64,0.76 -1.11,0.98 -0.47,0.23 -1.02,0.18 -1.48,0.09 -0.46,-0.09 -0.94,-0.12 -1.4,0.01 z"
   class="st16" />
		</g>
		<g
   style="display:none"
   id="g60"
   class="st3">
			<path
   style="display:inline;fill:#393434"
   inkscape:connector-curvature="0"
   id="path58"
   d="m 90.52,55.77 c -0.3,-0.29 -0.49,-0.66 -0.66,-1.03 -0.14,-0.38 -0.27,-0.78 -0.26,-1.19 0.19,0.37 0.33,0.74 0.49,1.1 0.14,0.37 0.31,0.72 0.43,1.12 z"
   class="st16" />
		</g>
	</g>
	<path
   style="display:none;opacity:0.2;fill:#cb6258"
   inkscape:connector-curvature="0"
   id="path64"
   d="m 109.13,73.16 c -8.2,3.57 -24.87,-2.62 -27.48,-3.67 4.49,1.75 9.14,3.26 14.58,3.73 9.67,0.82 15.3,-2.65 18.24,-6.69 3.59,-4.92 2.64,-11.9 -2.23,-15.57 -4.86,-3.66 -9.99,-1.42 -11.53,-0.46 -0.65,0.41 -1.26,1.01 -1.85,1.7 0.26,-0.4 4.94,-8.16 12.52,-4.49 7.73,3.74 7.53,10.17 7.55,11.97 0.05,1.8 -1.6,9.91 -9.8,13.48 z"
   class="st17" />
	<path
   style="opacity:0.2;fill:#cb6258"
   inkscape:connector-curvature="0"
   id="path66"
   d="m 85.3,91.79 c -2.03,0.42 -7.6,5 -19.12,5.68 -4.51,0.27 -20.83,-4.84 -14.5,-15.45 6.19,-10.36 18.4,-5.98 18.97,-5.77 -6.79,-1.3 -12.27,0.5 -15.37,5.03 -4.03,5.87 2.01,12.76 11.19,13.31 5.62,0.34 12.15,-1.51 18.83,-2.8 z"
   class="st18" />
	<path
   style="opacity:0.2;fill:#cb6258"
   inkscape:connector-curvature="0"
   id="path68"
   d="m 114.44,124.58 c -2.38,4.99 -10.58,15.13 -30.98,6.23 10.03,2.28 21.59,2.29 27.32,-6.67 4.58,-7.17 2.3,-16.87 -5.8,-20.15 -2.72,-1.1 -5.55,-1.69 -8.42,-1.9 0.31,-0.19 0,0 0,0 0,0 11.79,-1.14 16.86,4.44 5.07,5.57 3.4,13.05 1.02,18.05 z"
   class="st18" />
</g><path
     style="opacity:0.2;fill:#9bd0ee;stroke-width:1.28704321"
     inkscape:connector-curvature="0"
     inkscape:export-ydpi="45.869629"
     inkscape:export-xdpi="45.869629"
     inkscape:export-filename="C:\Users\clzolapc\Desktop\OpenSource\Snape_s_Potions_Warehouse\snapes-potions-warehouse-admin\src\assets\logo_h64.png"
     id="path72"
     d="m 107.35694,36.061736 c 0,-6.650498 4.97266,-11.384537 4.97266,-11.384537 8.91423,0 12.41206,2.132222 18.02423,5.863608 4.18957,2.779502 4.38534,3.642544 7.08702,7.335856 0,0 -1.43568,2.41144 -4.4767,9.353849 -1.31821,3.007955 -3.99379,12.031818 -8.99254,14.976314 -0.70478,0.41883 4.97265,-2.639893 5.93847,-9.594994 0.54817,-3.985222 -1.52704,-9.506151 -6.95649,-13.694442 -5.44252,-4.200983 -12.84277,-2.538359 -15.59665,-0.20307 -2.47981,2.106838 0,0 0,-2.652584 z"
     class="st14" /></g>
</svg>